<mxfile host="app.diagrams.net" modified="2022-06-25T15:19:11.153Z" agent="5.0 (Windows NT 10.0; Win64; x64) AppleWebKit/537.36 (KHTML, like Gecko) Chrome/103.0.0.0 Safari/537.36" etag="khmc7OrYRZOilgLwyElT" version="20.0.3" type="github" pages="2">
  <diagram id="v2z8GFz1xVQ4nOBSHtJG" name="Page-1">
    <mxGraphModel dx="1892" dy="1900" grid="1" gridSize="10" guides="1" tooltips="1" connect="1" arrows="1" fold="1" page="1" pageScale="1" pageWidth="1654" pageHeight="2336" math="0" shadow="0">
      <root>
        <mxCell id="0" />
        <mxCell id="1" parent="0" />
        <mxCell id="jRhHFrHwKbbma_4rEngc-61" value="Driver Profile Management" style="rounded=0;whiteSpace=wrap;html=1;sketch=0;fillColor=none;verticalAlign=top;fontStyle=1" vertex="1" parent="1">
          <mxGeometry x="100" y="20" width="290" height="680" as="geometry" />
        </mxCell>
        <mxCell id="jRhHFrHwKbbma_4rEngc-54" value="&lt;b&gt;Rider Profile Management&lt;/b&gt;" style="rounded=0;whiteSpace=wrap;html=1;sketch=0;fillColor=none;verticalAlign=top;" vertex="1" parent="1">
          <mxGeometry x="100" y="740" width="290" height="620" as="geometry" />
        </mxCell>
        <mxCell id="jRhHFrHwKbbma_4rEngc-30" style="edgeStyle=none;rounded=0;orthogonalLoop=1;jettySize=auto;html=1;entryX=0;entryY=0.5;entryDx=0;entryDy=0;endArrow=none;endFill=0;" edge="1" parent="1" target="jRhHFrHwKbbma_4rEngc-23">
          <mxGeometry relative="1" as="geometry">
            <mxPoint x="60" y="1010" as="sourcePoint" />
          </mxGeometry>
        </mxCell>
        <mxCell id="EtEnG1mAUkbt8heayrS2-1" value="Rider&lt;br&gt;" style="shape=umlActor;verticalLabelPosition=bottom;verticalAlign=top;html=1;outlineConnect=0;" parent="1" vertex="1">
          <mxGeometry x="30" y="1021" width="30" height="60" as="geometry" />
        </mxCell>
        <mxCell id="EtEnG1mAUkbt8heayrS2-25" style="rounded=0;orthogonalLoop=1;jettySize=auto;html=1;endArrow=none;endFill=0;entryX=0;entryY=0.5;entryDx=0;entryDy=0;" parent="1" target="EtEnG1mAUkbt8heayrS2-19" edge="1">
          <mxGeometry relative="1" as="geometry">
            <mxPoint x="50" y="310" as="sourcePoint" />
            <Array as="points" />
          </mxGeometry>
        </mxCell>
        <mxCell id="jRhHFrHwKbbma_4rEngc-7" style="rounded=0;orthogonalLoop=1;jettySize=auto;html=1;entryX=0;entryY=0.5;entryDx=0;entryDy=0;endArrow=none;endFill=0;" edge="1" parent="1" target="EtEnG1mAUkbt8heayrS2-27">
          <mxGeometry relative="1" as="geometry">
            <mxPoint x="70" y="330" as="sourcePoint" />
          </mxGeometry>
        </mxCell>
        <mxCell id="jRhHFrHwKbbma_4rEngc-8" style="rounded=0;orthogonalLoop=1;jettySize=auto;html=1;entryX=0;entryY=0.5;entryDx=0;entryDy=0;endArrow=none;endFill=0;" edge="1" parent="1" target="jRhHFrHwKbbma_4rEngc-67">
          <mxGeometry relative="1" as="geometry">
            <mxPoint x="60" y="360" as="sourcePoint" />
            <mxPoint x="169.9999999999984" y="398" as="targetPoint" />
          </mxGeometry>
        </mxCell>
        <mxCell id="jRhHFrHwKbbma_4rEngc-9" style="rounded=0;orthogonalLoop=1;jettySize=auto;html=1;entryX=0;entryY=0.5;entryDx=0;entryDy=0;endArrow=none;endFill=0;" edge="1" parent="1" target="jRhHFrHwKbbma_4rEngc-68">
          <mxGeometry relative="1" as="geometry">
            <mxPoint x="60" y="370" as="sourcePoint" />
            <mxPoint x="129.9999999999984" y="474" as="targetPoint" />
          </mxGeometry>
        </mxCell>
        <mxCell id="jRhHFrHwKbbma_4rEngc-10" style="rounded=0;orthogonalLoop=1;jettySize=auto;html=1;entryX=0;entryY=0.5;entryDx=0;entryDy=0;endArrow=none;endFill=0;" edge="1" parent="1" target="EtEnG1mAUkbt8heayrS2-28">
          <mxGeometry relative="1" as="geometry">
            <mxPoint x="60" y="390" as="sourcePoint" />
          </mxGeometry>
        </mxCell>
        <mxCell id="jRhHFrHwKbbma_4rEngc-90" style="edgeStyle=none;rounded=0;orthogonalLoop=1;jettySize=auto;html=1;entryX=0;entryY=0.5;entryDx=0;entryDy=0;endArrow=none;endFill=0;" edge="1" parent="1" target="jRhHFrHwKbbma_4rEngc-89">
          <mxGeometry relative="1" as="geometry">
            <mxPoint x="60" y="350" as="sourcePoint" />
          </mxGeometry>
        </mxCell>
        <mxCell id="EtEnG1mAUkbt8heayrS2-5" value="Driver" style="shape=umlActor;verticalLabelPosition=bottom;verticalAlign=top;html=1;outlineConnect=0;" parent="1" vertex="1">
          <mxGeometry x="20" y="320" width="30" height="60" as="geometry" />
        </mxCell>
        <mxCell id="EtEnG1mAUkbt8heayrS2-13" value="Driver License&lt;br&gt;Authentication System" style="shape=umlActor;verticalLabelPosition=bottom;verticalAlign=top;html=1;outlineConnect=0;" parent="1" vertex="1">
          <mxGeometry x="450" y="160" width="30" height="60" as="geometry" />
        </mxCell>
        <mxCell id="jRhHFrHwKbbma_4rEngc-16" style="edgeStyle=none;rounded=0;orthogonalLoop=1;jettySize=auto;html=1;exitX=1;exitY=0.5;exitDx=0;exitDy=0;endArrow=none;endFill=0;" edge="1" parent="1" source="EtEnG1mAUkbt8heayrS2-26" target="EtEnG1mAUkbt8heayrS2-13">
          <mxGeometry relative="1" as="geometry">
            <mxPoint x="460" y="330" as="targetPoint" />
          </mxGeometry>
        </mxCell>
        <mxCell id="jRhHFrHwKbbma_4rEngc-17" value="Bank &lt;br&gt;Authentication System" style="shape=umlActor;verticalLabelPosition=bottom;verticalAlign=top;html=1;outlineConnect=0;" vertex="1" parent="1">
          <mxGeometry x="450" y="296" width="30" height="60" as="geometry" />
        </mxCell>
        <mxCell id="jRhHFrHwKbbma_4rEngc-20" style="edgeStyle=none;rounded=0;orthogonalLoop=1;jettySize=auto;html=1;exitX=1;exitY=0.5;exitDx=0;exitDy=0;endArrow=none;endFill=0;" edge="1" parent="1" source="jRhHFrHwKbbma_4rEngc-64" target="jRhHFrHwKbbma_4rEngc-17">
          <mxGeometry relative="1" as="geometry" />
        </mxCell>
        <mxCell id="jRhHFrHwKbbma_4rEngc-32" style="edgeStyle=none;rounded=0;orthogonalLoop=1;jettySize=auto;html=1;exitX=0;exitY=0.5;exitDx=0;exitDy=0;endArrow=none;endFill=0;" edge="1" parent="1" source="jRhHFrHwKbbma_4rEngc-25">
          <mxGeometry relative="1" as="geometry">
            <mxPoint x="60" y="1030" as="targetPoint" />
          </mxGeometry>
        </mxCell>
        <mxCell id="jRhHFrHwKbbma_4rEngc-33" style="edgeStyle=none;rounded=0;orthogonalLoop=1;jettySize=auto;html=1;exitX=0;exitY=0.5;exitDx=0;exitDy=0;endArrow=none;endFill=0;" edge="1" parent="1" source="jRhHFrHwKbbma_4rEngc-91">
          <mxGeometry relative="1" as="geometry">
            <mxPoint x="169.9999999999984" y="1067" as="sourcePoint" />
            <mxPoint x="60" y="1050" as="targetPoint" />
          </mxGeometry>
        </mxCell>
        <mxCell id="jRhHFrHwKbbma_4rEngc-34" style="edgeStyle=none;rounded=0;orthogonalLoop=1;jettySize=auto;html=1;exitX=0;exitY=0.5;exitDx=0;exitDy=0;endArrow=none;endFill=0;" edge="1" parent="1" target="EtEnG1mAUkbt8heayrS2-1">
          <mxGeometry relative="1" as="geometry">
            <mxPoint x="169.9999999999984" y="1143" as="sourcePoint" />
          </mxGeometry>
        </mxCell>
        <mxCell id="jRhHFrHwKbbma_4rEngc-35" style="edgeStyle=none;rounded=0;orthogonalLoop=1;jettySize=auto;html=1;exitX=0;exitY=0.5;exitDx=0;exitDy=0;endArrow=none;endFill=0;" edge="1" parent="1" source="jRhHFrHwKbbma_4rEngc-26">
          <mxGeometry relative="1" as="geometry">
            <mxPoint x="60" y="1090" as="targetPoint" />
          </mxGeometry>
        </mxCell>
        <mxCell id="jRhHFrHwKbbma_4rEngc-37" value="Card&lt;br&gt;Authentication System" style="shape=umlActor;verticalLabelPosition=bottom;verticalAlign=top;html=1;outlineConnect=0;" vertex="1" parent="1">
          <mxGeometry x="450" y="870" width="30" height="60" as="geometry" />
        </mxCell>
        <mxCell id="jRhHFrHwKbbma_4rEngc-23" value="DR01. Register rider profile" style="ellipse;whiteSpace=wrap;html=1;flipH=0;flipV=0;" vertex="1" parent="1">
          <mxGeometry x="170" y="775" width="140" height="60" as="geometry" />
        </mxCell>
        <mxCell id="jRhHFrHwKbbma_4rEngc-60" style="rounded=0;orthogonalLoop=1;jettySize=auto;html=1;exitX=1;exitY=0.5;exitDx=0;exitDy=0;endArrow=none;endFill=0;" edge="1" parent="1" source="jRhHFrHwKbbma_4rEngc-24" target="jRhHFrHwKbbma_4rEngc-37">
          <mxGeometry relative="1" as="geometry" />
        </mxCell>
        <mxCell id="jRhHFrHwKbbma_4rEngc-24" value="DR02. Card verification" style="ellipse;whiteSpace=wrap;html=1;flipH=0;flipV=0;" vertex="1" parent="1">
          <mxGeometry x="170" y="870" width="140" height="60" as="geometry" />
        </mxCell>
        <mxCell id="jRhHFrHwKbbma_4rEngc-25" value="DR03. Modify rider &lt;br&gt;profile" style="ellipse;whiteSpace=wrap;html=1;flipH=0;flipV=0;" vertex="1" parent="1">
          <mxGeometry x="170" y="961" width="140" height="60" as="geometry" />
        </mxCell>
        <mxCell id="jRhHFrHwKbbma_4rEngc-26" value="DR07. Delete rider &lt;br&gt;profile" style="ellipse;whiteSpace=wrap;html=1;flipH=0;flipV=0;" vertex="1" parent="1">
          <mxGeometry x="170" y="1270" width="140" height="60" as="geometry" />
        </mxCell>
        <mxCell id="jRhHFrHwKbbma_4rEngc-44" value="DR03. Modify rider &lt;br&gt;profile" style="ellipse;whiteSpace=wrap;html=1;flipH=0;flipV=0;" vertex="1" parent="1">
          <mxGeometry x="170" y="961" width="140" height="60" as="geometry" />
        </mxCell>
        <mxCell id="jRhHFrHwKbbma_4rEngc-45" value="DR05. Deactivate rider profile" style="ellipse;whiteSpace=wrap;html=1;flipH=0;flipV=0;" vertex="1" parent="1">
          <mxGeometry x="170" y="1113" width="140" height="60" as="geometry" />
        </mxCell>
        <mxCell id="jRhHFrHwKbbma_4rEngc-92" style="edgeStyle=none;rounded=0;orthogonalLoop=1;jettySize=auto;html=1;exitX=0;exitY=0.5;exitDx=0;exitDy=0;endArrow=none;endFill=0;" edge="1" parent="1" source="jRhHFrHwKbbma_4rEngc-46" target="EtEnG1mAUkbt8heayrS2-1">
          <mxGeometry relative="1" as="geometry">
            <mxPoint x="69.99999999999989" y="1090" as="targetPoint" />
          </mxGeometry>
        </mxCell>
        <mxCell id="jRhHFrHwKbbma_4rEngc-46" value="DR06. Activate rider profile" style="ellipse;whiteSpace=wrap;html=1;flipH=0;flipV=0;" vertex="1" parent="1">
          <mxGeometry x="170" y="1189" width="140" height="60" as="geometry" />
        </mxCell>
        <mxCell id="jRhHFrHwKbbma_4rEngc-56" value="&amp;lt;&amp;lt;include&amp;gt;&amp;gt;" style="endArrow=open;startArrow=none;endFill=0;startFill=0;endSize=8;html=1;verticalAlign=bottom;dashed=1;labelBackgroundColor=none;rounded=0;exitX=0.5;exitY=0;exitDx=0;exitDy=0;entryX=0.5;entryY=1;entryDx=0;entryDy=0;" edge="1" parent="1" source="jRhHFrHwKbbma_4rEngc-44" target="jRhHFrHwKbbma_4rEngc-24">
          <mxGeometry x="-0.2903" y="-40" width="160" relative="1" as="geometry">
            <mxPoint x="500" y="1020" as="sourcePoint" />
            <mxPoint x="240" y="934" as="targetPoint" />
            <mxPoint as="offset" />
          </mxGeometry>
        </mxCell>
        <mxCell id="jRhHFrHwKbbma_4rEngc-59" value="&amp;lt;&amp;lt;include&amp;gt;&amp;gt;" style="endArrow=open;startArrow=none;endFill=0;startFill=0;endSize=8;html=1;verticalAlign=bottom;dashed=1;labelBackgroundColor=none;rounded=0;exitX=0.5;exitY=1;exitDx=0;exitDy=0;" edge="1" parent="1" source="jRhHFrHwKbbma_4rEngc-23" target="jRhHFrHwKbbma_4rEngc-24">
          <mxGeometry x="-0.1429" y="40" width="160" relative="1" as="geometry">
            <mxPoint x="240" y="840" as="sourcePoint" />
            <mxPoint x="250" y="940" as="targetPoint" />
            <mxPoint as="offset" />
          </mxGeometry>
        </mxCell>
        <mxCell id="EtEnG1mAUkbt8heayrS2-19" value="DR01. Register driver profile" style="ellipse;whiteSpace=wrap;html=1;flipH=0;flipV=0;" parent="1" vertex="1">
          <mxGeometry x="130" y="60" width="140" height="60" as="geometry" />
        </mxCell>
        <mxCell id="EtEnG1mAUkbt8heayrS2-26" value="DR02. Driver license verification" style="ellipse;whiteSpace=wrap;html=1;flipH=0;flipV=0;" parent="1" vertex="1">
          <mxGeometry x="130" y="160" width="140" height="60" as="geometry" />
        </mxCell>
        <mxCell id="EtEnG1mAUkbt8heayrS2-27" value="DR04. Modify driver profile" style="ellipse;whiteSpace=wrap;html=1;flipH=0;flipV=0;" parent="1" vertex="1">
          <mxGeometry x="130" y="295" width="140" height="60" as="geometry" />
        </mxCell>
        <mxCell id="EtEnG1mAUkbt8heayrS2-28" value="DR08. Delete driver profile" style="ellipse;whiteSpace=wrap;html=1;flipH=0;flipV=0;" parent="1" vertex="1">
          <mxGeometry x="130" y="620" width="140" height="60" as="geometry" />
        </mxCell>
        <mxCell id="jRhHFrHwKbbma_4rEngc-62" value="&amp;lt;&amp;lt;include&amp;gt;&amp;gt;" style="endArrow=open;startArrow=none;endFill=0;startFill=0;endSize=8;html=1;verticalAlign=bottom;dashed=1;labelBackgroundColor=none;rounded=0;exitX=0.5;exitY=1;exitDx=0;exitDy=0;entryX=0.5;entryY=0;entryDx=0;entryDy=0;" edge="1" parent="1" source="EtEnG1mAUkbt8heayrS2-19" target="EtEnG1mAUkbt8heayrS2-26">
          <mxGeometry x="1" y="32" width="160" relative="1" as="geometry">
            <mxPoint x="250" y="584.9999999999998" as="sourcePoint" />
            <mxPoint x="250" y="620.0000000000002" as="targetPoint" />
            <mxPoint as="offset" />
            <Array as="points" />
          </mxGeometry>
        </mxCell>
        <mxCell id="jRhHFrHwKbbma_4rEngc-63" value="&amp;lt;&amp;lt;include&amp;gt;&amp;gt;" style="endArrow=open;startArrow=none;endFill=0;startFill=0;endSize=8;html=1;verticalAlign=bottom;dashed=1;labelBackgroundColor=none;rounded=0;exitX=0.5;exitY=0;exitDx=0;exitDy=0;entryX=0.5;entryY=1;entryDx=0;entryDy=0;" edge="1" parent="1" source="EtEnG1mAUkbt8heayrS2-27" target="EtEnG1mAUkbt8heayrS2-26">
          <mxGeometry x="-0.3333" y="40" width="160" relative="1" as="geometry">
            <mxPoint x="250" y="120" as="sourcePoint" />
            <mxPoint x="250" y="150" as="targetPoint" />
            <mxPoint as="offset" />
            <Array as="points" />
          </mxGeometry>
        </mxCell>
        <mxCell id="jRhHFrHwKbbma_4rEngc-64" value="DR03. Bank account verification" style="ellipse;whiteSpace=wrap;html=1;flipH=0;flipV=0;" vertex="1" parent="1">
          <mxGeometry x="230" y="220" width="140" height="60" as="geometry" />
        </mxCell>
        <mxCell id="jRhHFrHwKbbma_4rEngc-65" value="&amp;lt;&amp;lt;include&amp;gt;&amp;gt;" style="endArrow=open;startArrow=none;endFill=0;startFill=0;endSize=8;html=1;verticalAlign=bottom;dashed=1;labelBackgroundColor=none;rounded=0;exitX=1;exitY=0.5;exitDx=0;exitDy=0;entryX=0.5;entryY=0;entryDx=0;entryDy=0;" edge="1" parent="1" source="EtEnG1mAUkbt8heayrS2-19" target="jRhHFrHwKbbma_4rEngc-64">
          <mxGeometry x="-0.3252" y="28" width="160" relative="1" as="geometry">
            <mxPoint x="210" y="150" as="sourcePoint" />
            <mxPoint x="210" y="190" as="targetPoint" />
            <mxPoint as="offset" />
            <Array as="points" />
          </mxGeometry>
        </mxCell>
        <mxCell id="jRhHFrHwKbbma_4rEngc-66" value="&amp;lt;&amp;lt;include&amp;gt;&amp;gt;" style="endArrow=open;startArrow=none;endFill=0;startFill=0;endSize=8;html=1;verticalAlign=bottom;dashed=1;labelBackgroundColor=none;rounded=0;exitX=1;exitY=0.5;exitDx=0;exitDy=0;entryX=0.5;entryY=1;entryDx=0;entryDy=0;" edge="1" parent="1" source="EtEnG1mAUkbt8heayrS2-27" target="jRhHFrHwKbbma_4rEngc-64">
          <mxGeometry x="0.3541" y="-35" width="160" relative="1" as="geometry">
            <mxPoint x="200" y="305" as="sourcePoint" />
            <mxPoint x="210" y="250" as="targetPoint" />
            <mxPoint as="offset" />
            <Array as="points" />
          </mxGeometry>
        </mxCell>
        <mxCell id="jRhHFrHwKbbma_4rEngc-67" value="DR06. Deactivate driver profile" style="ellipse;whiteSpace=wrap;html=1;flipH=0;flipV=0;" vertex="1" parent="1">
          <mxGeometry x="130" y="460" width="140" height="60" as="geometry" />
        </mxCell>
        <mxCell id="jRhHFrHwKbbma_4rEngc-68" value="DR07. Activate driver profile" style="ellipse;whiteSpace=wrap;html=1;flipH=0;flipV=0;" vertex="1" parent="1">
          <mxGeometry x="130" y="540" width="140" height="60" as="geometry" />
        </mxCell>
        <mxCell id="jRhHFrHwKbbma_4rEngc-69" value="&lt;b&gt;Staff Profile Management&lt;/b&gt;" style="rounded=0;whiteSpace=wrap;html=1;sketch=0;fillColor=none;verticalAlign=top;" vertex="1" parent="1">
          <mxGeometry x="640" y="740" width="290" height="540" as="geometry" />
        </mxCell>
        <mxCell id="jRhHFrHwKbbma_4rEngc-70" style="edgeStyle=none;rounded=0;orthogonalLoop=1;jettySize=auto;html=1;entryX=0;entryY=0.5;entryDx=0;entryDy=0;endArrow=none;endFill=0;" edge="1" parent="1" target="jRhHFrHwKbbma_4rEngc-96">
          <mxGeometry relative="1" as="geometry">
            <mxPoint x="590" y="980" as="sourcePoint" />
            <mxPoint x="709.999999999997" y="815" as="targetPoint" />
          </mxGeometry>
        </mxCell>
        <mxCell id="jRhHFrHwKbbma_4rEngc-71" value="Staff" style="shape=umlActor;verticalLabelPosition=bottom;verticalAlign=top;html=1;outlineConnect=0;" vertex="1" parent="1">
          <mxGeometry x="570" y="985" width="30" height="60" as="geometry" />
        </mxCell>
        <mxCell id="jRhHFrHwKbbma_4rEngc-72" style="edgeStyle=none;rounded=0;orthogonalLoop=1;jettySize=auto;html=1;exitX=0;exitY=0.5;exitDx=0;exitDy=0;endArrow=none;endFill=0;" edge="1" parent="1" source="jRhHFrHwKbbma_4rEngc-93" target="jRhHFrHwKbbma_4rEngc-71">
          <mxGeometry relative="1" as="geometry">
            <mxPoint x="590" y="975" as="targetPoint" />
            <mxPoint x="709.999999999997" y="1001" as="sourcePoint" />
          </mxGeometry>
        </mxCell>
        <mxCell id="jRhHFrHwKbbma_4rEngc-73" style="edgeStyle=none;rounded=0;orthogonalLoop=1;jettySize=auto;html=1;exitX=0;exitY=0.5;exitDx=0;exitDy=0;endArrow=none;endFill=0;" edge="1" parent="1" source="jRhHFrHwKbbma_4rEngc-85" target="jRhHFrHwKbbma_4rEngc-71">
          <mxGeometry relative="1" as="geometry">
            <mxPoint x="709.999999999997" y="1077" as="sourcePoint" />
          </mxGeometry>
        </mxCell>
        <mxCell id="jRhHFrHwKbbma_4rEngc-74" style="edgeStyle=none;rounded=0;orthogonalLoop=1;jettySize=auto;html=1;exitX=0;exitY=0.5;exitDx=0;exitDy=0;endArrow=none;endFill=0;" edge="1" parent="1" source="jRhHFrHwKbbma_4rEngc-86" target="jRhHFrHwKbbma_4rEngc-71">
          <mxGeometry relative="1" as="geometry">
            <mxPoint x="709.999999999997" y="1153" as="sourcePoint" />
          </mxGeometry>
        </mxCell>
        <mxCell id="jRhHFrHwKbbma_4rEngc-75" style="edgeStyle=none;rounded=0;orthogonalLoop=1;jettySize=auto;html=1;exitX=0;exitY=0.5;exitDx=0;exitDy=0;endArrow=none;endFill=0;" edge="1" parent="1" source="jRhHFrHwKbbma_4rEngc-81">
          <mxGeometry relative="1" as="geometry">
            <mxPoint x="600" y="1050" as="targetPoint" />
          </mxGeometry>
        </mxCell>
        <mxCell id="jRhHFrHwKbbma_4rEngc-89" value="DR05. Browse driver profile" style="ellipse;whiteSpace=wrap;html=1;flipH=0;flipV=0;" vertex="1" parent="1">
          <mxGeometry x="130" y="380" width="140" height="60" as="geometry" />
        </mxCell>
        <mxCell id="jRhHFrHwKbbma_4rEngc-91" value="DR04. Browse rider &lt;br&gt;profile" style="ellipse;whiteSpace=wrap;html=1;flipH=0;flipV=0;" vertex="1" parent="1">
          <mxGeometry x="170" y="1037" width="140" height="60" as="geometry" />
        </mxCell>
        <mxCell id="jRhHFrHwKbbma_4rEngc-97" style="edgeStyle=none;rounded=0;orthogonalLoop=1;jettySize=auto;html=1;exitX=0;exitY=0.5;exitDx=0;exitDy=0;endArrow=none;endFill=0;" edge="1" parent="1" source="jRhHFrHwKbbma_4rEngc-95">
          <mxGeometry relative="1" as="geometry">
            <mxPoint x="600" y="990" as="targetPoint" />
          </mxGeometry>
        </mxCell>
        <mxCell id="jRhHFrHwKbbma_4rEngc-98" value="" style="group" vertex="1" connectable="0" parent="1">
          <mxGeometry x="715" y="778" width="140" height="474" as="geometry" />
        </mxCell>
        <mxCell id="jRhHFrHwKbbma_4rEngc-81" value="DR06. Delete staff&lt;br&gt;profile" style="ellipse;whiteSpace=wrap;html=1;flipH=1;flipV=1;" vertex="1" parent="jRhHFrHwKbbma_4rEngc-98">
          <mxGeometry y="414" width="140" height="60" as="geometry" />
        </mxCell>
        <mxCell id="jRhHFrHwKbbma_4rEngc-85" value="DR04. Deactivate staff profile" style="ellipse;whiteSpace=wrap;html=1;flipH=1;flipV=1;" vertex="1" parent="jRhHFrHwKbbma_4rEngc-98">
          <mxGeometry y="248" width="140" height="60" as="geometry" />
        </mxCell>
        <mxCell id="jRhHFrHwKbbma_4rEngc-86" value="DR05. Activate staff profile" style="ellipse;whiteSpace=wrap;html=1;flipH=1;flipV=1;" vertex="1" parent="jRhHFrHwKbbma_4rEngc-98">
          <mxGeometry y="331" width="140" height="60" as="geometry" />
        </mxCell>
        <mxCell id="jRhHFrHwKbbma_4rEngc-93" value="DR03. Browse staff&lt;br&gt;profile" style="ellipse;whiteSpace=wrap;html=1;flipH=1;flipV=1;" vertex="1" parent="jRhHFrHwKbbma_4rEngc-98">
          <mxGeometry y="166" width="140" height="60" as="geometry" />
        </mxCell>
        <mxCell id="jRhHFrHwKbbma_4rEngc-95" value="DR02. Modify staff&lt;br&gt;profile" style="ellipse;whiteSpace=wrap;html=1;flipH=1;flipV=1;" vertex="1" parent="jRhHFrHwKbbma_4rEngc-98">
          <mxGeometry y="83" width="140" height="60" as="geometry" />
        </mxCell>
        <mxCell id="jRhHFrHwKbbma_4rEngc-96" value="DR01. Register staff profile" style="ellipse;whiteSpace=wrap;html=1;flipH=1;flipV=1;" vertex="1" parent="jRhHFrHwKbbma_4rEngc-98">
          <mxGeometry width="140" height="60" as="geometry" />
        </mxCell>
        <mxCell id="jRhHFrHwKbbma_4rEngc-101" value="&lt;b&gt;Vehicle Profile Management&lt;/b&gt;" style="rounded=0;whiteSpace=wrap;html=1;sketch=0;fillColor=none;verticalAlign=top;" vertex="1" parent="1">
          <mxGeometry x="640" y="20" width="290" height="540" as="geometry" />
        </mxCell>
        <mxCell id="jRhHFrHwKbbma_4rEngc-102" style="edgeStyle=none;rounded=0;orthogonalLoop=1;jettySize=auto;html=1;entryX=0;entryY=0.5;entryDx=0;entryDy=0;endArrow=none;endFill=0;" edge="1" parent="1" target="jRhHFrHwKbbma_4rEngc-115">
          <mxGeometry relative="1" as="geometry">
            <mxPoint x="590" y="260" as="sourcePoint" />
            <mxPoint x="709.999999999997" y="95" as="targetPoint" />
          </mxGeometry>
        </mxCell>
        <mxCell id="jRhHFrHwKbbma_4rEngc-103" value="Driver" style="shape=umlActor;verticalLabelPosition=bottom;verticalAlign=top;html=1;outlineConnect=0;" vertex="1" parent="1">
          <mxGeometry x="570" y="265" width="30" height="60" as="geometry" />
        </mxCell>
        <mxCell id="jRhHFrHwKbbma_4rEngc-104" style="edgeStyle=none;rounded=0;orthogonalLoop=1;jettySize=auto;html=1;exitX=0;exitY=0.5;exitDx=0;exitDy=0;endArrow=none;endFill=0;" edge="1" parent="1" source="jRhHFrHwKbbma_4rEngc-113" target="jRhHFrHwKbbma_4rEngc-103">
          <mxGeometry relative="1" as="geometry">
            <mxPoint x="590" y="255" as="targetPoint" />
            <mxPoint x="709.999999999997" y="281" as="sourcePoint" />
          </mxGeometry>
        </mxCell>
        <mxCell id="jRhHFrHwKbbma_4rEngc-105" style="edgeStyle=none;rounded=0;orthogonalLoop=1;jettySize=auto;html=1;exitX=0;exitY=0.5;exitDx=0;exitDy=0;endArrow=none;endFill=0;" edge="1" parent="1" source="jRhHFrHwKbbma_4rEngc-111" target="jRhHFrHwKbbma_4rEngc-103">
          <mxGeometry relative="1" as="geometry">
            <mxPoint x="709.999999999997" y="357" as="sourcePoint" />
          </mxGeometry>
        </mxCell>
        <mxCell id="jRhHFrHwKbbma_4rEngc-106" style="edgeStyle=none;rounded=0;orthogonalLoop=1;jettySize=auto;html=1;exitX=0;exitY=0.5;exitDx=0;exitDy=0;endArrow=none;endFill=0;" edge="1" parent="1" source="jRhHFrHwKbbma_4rEngc-112" target="jRhHFrHwKbbma_4rEngc-103">
          <mxGeometry relative="1" as="geometry">
            <mxPoint x="709.999999999997" y="433" as="sourcePoint" />
          </mxGeometry>
        </mxCell>
        <mxCell id="jRhHFrHwKbbma_4rEngc-107" style="edgeStyle=none;rounded=0;orthogonalLoop=1;jettySize=auto;html=1;exitX=0;exitY=0.5;exitDx=0;exitDy=0;endArrow=none;endFill=0;" edge="1" parent="1" source="jRhHFrHwKbbma_4rEngc-110">
          <mxGeometry relative="1" as="geometry">
            <mxPoint x="600" y="330" as="targetPoint" />
          </mxGeometry>
        </mxCell>
        <mxCell id="jRhHFrHwKbbma_4rEngc-108" style="edgeStyle=none;rounded=0;orthogonalLoop=1;jettySize=auto;html=1;exitX=0;exitY=0.5;exitDx=0;exitDy=0;endArrow=none;endFill=0;" edge="1" parent="1" source="jRhHFrHwKbbma_4rEngc-114">
          <mxGeometry relative="1" as="geometry">
            <mxPoint x="600" y="270" as="targetPoint" />
          </mxGeometry>
        </mxCell>
        <mxCell id="jRhHFrHwKbbma_4rEngc-109" value="" style="group" vertex="1" connectable="0" parent="1">
          <mxGeometry x="715" y="58" width="140" height="474" as="geometry" />
        </mxCell>
        <mxCell id="jRhHFrHwKbbma_4rEngc-110" value="DR06. Delete vehicle&lt;br&gt;profile" style="ellipse;whiteSpace=wrap;html=1;flipH=1;flipV=1;" vertex="1" parent="jRhHFrHwKbbma_4rEngc-109">
          <mxGeometry y="414" width="140" height="60" as="geometry" />
        </mxCell>
        <mxCell id="jRhHFrHwKbbma_4rEngc-111" value="DR04. Deactivate vehicle profile" style="ellipse;whiteSpace=wrap;html=1;flipH=1;flipV=1;" vertex="1" parent="jRhHFrHwKbbma_4rEngc-109">
          <mxGeometry y="248" width="140" height="60" as="geometry" />
        </mxCell>
        <mxCell id="jRhHFrHwKbbma_4rEngc-112" value="DR05. Activate vehicle profile" style="ellipse;whiteSpace=wrap;html=1;flipH=1;flipV=1;" vertex="1" parent="jRhHFrHwKbbma_4rEngc-109">
          <mxGeometry y="331" width="140" height="60" as="geometry" />
        </mxCell>
        <mxCell id="jRhHFrHwKbbma_4rEngc-113" value="DR03. Browse vehicle&lt;br&gt;profile" style="ellipse;whiteSpace=wrap;html=1;flipH=1;flipV=1;" vertex="1" parent="jRhHFrHwKbbma_4rEngc-109">
          <mxGeometry y="166" width="140" height="60" as="geometry" />
        </mxCell>
        <mxCell id="jRhHFrHwKbbma_4rEngc-114" value="DR02. Modify vehicle&lt;br&gt;profile" style="ellipse;whiteSpace=wrap;html=1;flipH=1;flipV=1;" vertex="1" parent="jRhHFrHwKbbma_4rEngc-109">
          <mxGeometry y="83" width="140" height="60" as="geometry" />
        </mxCell>
        <mxCell id="jRhHFrHwKbbma_4rEngc-115" value="DR01. Register vehicle profile" style="ellipse;whiteSpace=wrap;html=1;flipH=1;flipV=1;" vertex="1" parent="jRhHFrHwKbbma_4rEngc-109">
          <mxGeometry width="140" height="60" as="geometry" />
        </mxCell>
        <mxCell id="jRhHFrHwKbbma_4rEngc-125" value="&lt;b&gt;Map Data Management&lt;/b&gt;" style="rounded=0;whiteSpace=wrap;html=1;sketch=0;fillColor=none;verticalAlign=top;" vertex="1" parent="1">
          <mxGeometry x="1170" y="20" width="290" height="540" as="geometry" />
        </mxCell>
        <mxCell id="jRhHFrHwKbbma_4rEngc-126" value="&lt;b&gt;Traffic Data Management&lt;/b&gt;" style="rounded=0;whiteSpace=wrap;html=1;sketch=0;fillColor=none;verticalAlign=top;" vertex="1" parent="1">
          <mxGeometry x="1150" y="740" width="290" height="540" as="geometry" />
        </mxCell>
      </root>
    </mxGraphModel>
  </diagram>
  <diagram id="m3zqbhuXS4XEQ-KiTBQG" name="Page-2">
    <mxGraphModel dx="946" dy="1007" grid="1" gridSize="10" guides="1" tooltips="1" connect="1" arrows="1" fold="1" page="1" pageScale="1" pageWidth="1654" pageHeight="2336" math="0" shadow="0">
      <root>
        <mxCell id="0" />
        <mxCell id="1" parent="0" />
        <mxCell id="6NtLuqMpk1xB675eKMqx-1" value="&lt;b&gt;Trip Request Management&lt;/b&gt;" style="rounded=0;whiteSpace=wrap;html=1;sketch=0;fillColor=none;verticalAlign=top;" vertex="1" parent="1">
          <mxGeometry x="210" y="140" width="290" height="540" as="geometry" />
        </mxCell>
        <mxCell id="6NtLuqMpk1xB675eKMqx-2" value="&lt;b&gt;Trip Contract Management&lt;/b&gt;" style="rounded=0;whiteSpace=wrap;html=1;sketch=0;fillColor=none;verticalAlign=top;" vertex="1" parent="1">
          <mxGeometry x="210" y="730" width="290" height="540" as="geometry" />
        </mxCell>
        <mxCell id="6NtLuqMpk1xB675eKMqx-3" value="&lt;b&gt;Trip Session Management&lt;/b&gt;" style="rounded=0;whiteSpace=wrap;html=1;sketch=0;fillColor=none;verticalAlign=top;" vertex="1" parent="1">
          <mxGeometry x="810" y="140" width="290" height="540" as="geometry" />
        </mxCell>
        <mxCell id="6NtLuqMpk1xB675eKMqx-4" value="&lt;b&gt;Trip Issue Management&lt;/b&gt;" style="rounded=0;whiteSpace=wrap;html=1;sketch=0;fillColor=none;verticalAlign=top;" vertex="1" parent="1">
          <mxGeometry x="810" y="730" width="290" height="540" as="geometry" />
        </mxCell>
        <mxCell id="dn1m786RO3zcUYOW7HXG-1" value="&lt;b&gt;Fare Management&lt;/b&gt;" style="rounded=0;whiteSpace=wrap;html=1;sketch=0;fillColor=none;verticalAlign=top;" vertex="1" parent="1">
          <mxGeometry x="1240" y="140" width="290" height="540" as="geometry" />
        </mxCell>
        <mxCell id="dn1m786RO3zcUYOW7HXG-2" value="&lt;b&gt;Wage Management&lt;/b&gt;" style="rounded=0;whiteSpace=wrap;html=1;sketch=0;fillColor=none;verticalAlign=top;" vertex="1" parent="1">
          <mxGeometry x="1240" y="730" width="290" height="540" as="geometry" />
        </mxCell>
        <mxCell id="dn1m786RO3zcUYOW7HXG-3" value="&lt;b&gt;Report Generation&lt;/b&gt;" style="rounded=0;whiteSpace=wrap;html=1;sketch=0;fillColor=none;verticalAlign=top;" vertex="1" parent="1">
          <mxGeometry x="1240" y="1340" width="290" height="540" as="geometry" />
        </mxCell>
      </root>
    </mxGraphModel>
  </diagram>
</mxfile>
